<svg xmlns="http://www.w3.org/2000/svg" xmlns:xlink="http://www.w3.org/1999/xlink" width="450" zoomAndPan="magnify" viewBox="0 0 337.5 231" height="308" preserveAspectRatio="xMidYMid meet" version="1.0"><defs><clipPath id="ce678a3ed7"><path d="M 0 66 L 308 66 L 308 230.828125 L 0 230.828125 Z M 0 66 " clip-rule="nonzero"/></clipPath><clipPath id="5f2d22ea12"><path d="M 30 0.171875 L 337 0.171875 L 337 165 L 30 165 Z M 30 0.171875 " clip-rule="nonzero"/></clipPath></defs><g clip-path="url(#ce678a3ed7)"><path fill="#006985" d="M 224.832031 66.679688 L 121.011719 66.679688 C 120.484375 66.679688 119.960938 66.707031 119.4375 66.757812 C 118.914062 66.808594 118.394531 66.886719 117.878906 66.988281 C 117.363281 67.089844 116.855469 67.21875 116.351562 67.371094 C 115.847656 67.523438 115.351562 67.699219 114.867188 67.902344 C 114.382812 68.101562 113.90625 68.328125 113.445312 68.574219 C 112.980469 68.820312 112.53125 69.09375 112.09375 69.382812 C 111.65625 69.675781 111.234375 69.988281 110.828125 70.320312 C 110.421875 70.65625 110.03125 71.007812 109.660156 71.378906 C 109.289062 71.75 108.9375 72.136719 108.601562 72.542969 C 108.269531 72.949219 107.957031 73.371094 107.664062 73.808594 C 107.371094 74.246094 107.101562 74.695312 106.855469 75.15625 C 106.609375 75.621094 106.382812 76.09375 106.183594 76.582031 C 105.980469 77.066406 105.804688 77.558594 105.652344 78.0625 C 105.5 78.566406 105.371094 79.074219 105.269531 79.589844 C 105.164062 80.105469 105.089844 80.621094 105.039062 81.144531 C 104.984375 81.667969 104.960938 82.191406 104.960938 82.71875 C 104.960938 83.242188 104.984375 83.765625 105.039062 84.289062 C 105.089844 84.8125 105.164062 85.332031 105.269531 85.847656 C 105.371094 86.359375 105.5 86.871094 105.652344 87.371094 C 105.804688 87.875 105.980469 88.367188 106.183594 88.855469 C 106.382812 89.339844 106.609375 89.8125 106.855469 90.277344 C 107.101562 90.738281 107.371094 91.191406 107.664062 91.625 C 107.957031 92.0625 108.269531 92.484375 108.601562 92.890625 C 108.9375 93.296875 109.289062 93.683594 109.660156 94.058594 C 110.03125 94.429688 110.421875 94.78125 110.828125 95.113281 C 111.234375 95.445312 111.65625 95.757812 112.09375 96.050781 C 112.53125 96.34375 112.980469 96.613281 113.445312 96.859375 C 113.90625 97.109375 114.382812 97.332031 114.867188 97.53125 C 115.355469 97.734375 115.847656 97.910156 116.351562 98.0625 C 116.855469 98.214844 117.363281 98.34375 117.878906 98.445312 C 118.394531 98.546875 118.914062 98.625 119.4375 98.675781 C 119.960938 98.726562 120.484375 98.753906 121.011719 98.753906 L 224.832031 98.753906 C 226.476562 98.761719 228.113281 98.847656 229.746094 99.011719 C 231.382812 99.179688 233.003906 99.425781 234.613281 99.75 C 236.222656 100.074219 237.8125 100.476562 239.382812 100.957031 C 240.953125 101.4375 242.496094 101.992188 244.011719 102.621094 C 245.527344 103.253906 247.011719 103.957031 248.457031 104.730469 C 249.90625 105.507812 251.308594 106.351562 252.675781 107.265625 C 254.039062 108.175781 255.355469 109.152344 256.625 110.195312 C 257.894531 111.238281 259.109375 112.339844 260.269531 113.5 C 261.433594 114.660156 262.535156 115.871094 263.574219 117.140625 C 264.617188 118.410156 265.597656 119.722656 266.511719 121.085938 C 267.425781 122.449219 268.269531 123.855469 269.046875 125.300781 C 269.820312 126.746094 270.523438 128.226562 271.15625 129.742188 C 271.789062 131.257812 272.34375 132.800781 272.824219 134.367188 C 273.304688 135.9375 273.707031 137.527344 274.03125 139.132812 C 274.355469 140.742188 274.601562 142.363281 274.769531 143.996094 C 274.9375 145.628906 275.023438 147.265625 275.027344 148.90625 C 275.023438 150.546875 274.9375 152.183594 274.769531 153.816406 C 274.601562 155.449219 274.359375 157.066406 274.03125 158.675781 C 273.707031 160.285156 273.304688 161.875 272.824219 163.441406 C 272.34375 165.011719 271.789062 166.554688 271.15625 168.066406 C 270.523438 169.582031 269.820312 171.0625 269.046875 172.507812 C 268.269531 173.953125 267.425781 175.359375 266.511719 176.722656 C 265.597656 178.085938 264.617188 179.402344 263.578125 180.671875 C 262.535156 181.9375 261.433594 183.152344 260.269531 184.3125 C 259.109375 185.472656 257.894531 186.574219 256.625 187.613281 C 255.355469 188.65625 254.039062 189.632812 252.675781 190.546875 C 251.3125 191.460938 249.90625 192.304688 248.457031 193.078125 C 247.011719 193.855469 245.527344 194.558594 244.011719 195.1875 C 242.496094 195.820312 240.953125 196.375 239.382812 196.855469 C 237.8125 197.335938 236.222656 197.738281 234.613281 198.0625 C 233.003906 198.386719 231.382812 198.632812 229.746094 198.796875 C 228.113281 198.964844 226.476562 199.050781 224.832031 199.058594 L 0.265625 199.058594 L 0.265625 231.128906 L 224.832031 231.128906 C 226.179688 231.125 227.523438 231.089844 228.867188 231.019531 C 230.214844 230.953125 231.554688 230.851562 232.894531 230.714844 C 234.234375 230.582031 235.566406 230.414062 236.898438 230.214844 C 238.230469 230.015625 239.554688 229.78125 240.875 229.515625 C 242.195312 229.253906 243.507812 228.957031 244.8125 228.625 C 246.117188 228.296875 247.414062 227.9375 248.699219 227.546875 C 249.988281 227.152344 251.265625 226.730469 252.53125 226.273438 C 253.796875 225.820312 255.050781 225.335938 256.296875 224.820312 C 257.539062 224.300781 258.765625 223.757812 259.984375 223.179688 C 261.199219 222.605469 262.402344 222 263.585938 221.363281 C 264.773438 220.726562 265.945312 220.066406 267.097656 219.371094 C 268.25 218.679688 269.386719 217.960938 270.507812 217.210938 C 271.625 216.464844 272.726562 215.691406 273.804688 214.890625 C 274.886719 214.085938 275.945312 213.257812 276.988281 212.40625 C 278.027344 211.554688 279.046875 210.675781 280.042969 209.769531 C 281.039062 208.867188 282.015625 207.941406 282.964844 206.992188 C 283.917969 206.039062 284.847656 205.066406 285.75 204.070312 C 286.652344 203.074219 287.53125 202.054688 288.386719 201.015625 C 289.242188 199.976562 290.070312 198.917969 290.871094 197.839844 C 291.675781 196.757812 292.449219 195.660156 293.199219 194.542969 C 293.945312 193.425781 294.667969 192.289062 295.359375 191.136719 C 296.054688 189.984375 296.71875 188.8125 297.351562 187.628906 C 297.988281 186.441406 298.59375 185.242188 299.171875 184.027344 C 299.746094 182.8125 300.292969 181.585938 300.8125 180.34375 C 301.328125 179.101562 301.8125 177.847656 302.269531 176.582031 C 302.722656 175.316406 303.148438 174.039062 303.539062 172.753906 C 303.933594 171.46875 304.292969 170.171875 304.625 168.867188 C 304.953125 167.566406 305.25 166.253906 305.515625 164.933594 C 305.78125 163.617188 306.011719 162.292969 306.210938 160.960938 C 306.414062 159.632812 306.578125 158.300781 306.714844 156.960938 C 306.847656 155.621094 306.953125 154.28125 307.019531 152.9375 C 307.089844 151.597656 307.125 150.253906 307.128906 148.90625 C 307.125 147.5625 307.089844 146.21875 307.019531 144.875 C 306.953125 143.53125 306.851562 142.191406 306.714844 140.855469 C 306.582031 139.515625 306.414062 138.183594 306.214844 136.851562 C 306.011719 135.523438 305.78125 134.199219 305.515625 132.878906 C 305.25 131.5625 304.953125 130.25 304.625 128.945312 C 304.296875 127.640625 303.933594 126.347656 303.542969 125.058594 C 303.148438 123.773438 302.726562 122.496094 302.269531 121.234375 C 301.816406 119.96875 301.328125 118.714844 300.8125 117.472656 C 300.296875 116.230469 299.75 115 299.171875 113.785156 C 298.597656 112.570312 297.988281 111.371094 297.355469 110.183594 C 296.71875 109 296.054688 107.832031 295.363281 106.675781 C 294.667969 105.523438 293.949219 104.390625 293.199219 103.269531 C 292.453125 102.152344 291.675781 101.054688 290.875 99.976562 C 290.070312 98.894531 289.242188 97.835938 288.390625 96.796875 C 287.535156 95.757812 286.65625 94.738281 285.75 93.742188 C 284.847656 92.746094 283.921875 91.773438 282.96875 90.820312 C 282.015625 89.871094 281.042969 88.945312 280.046875 88.039062 C 279.046875 87.136719 278.027344 86.257812 276.988281 85.40625 C 275.949219 84.550781 274.886719 83.722656 273.808594 82.921875 C 272.726562 82.121094 271.628906 81.347656 270.507812 80.597656 C 269.390625 79.851562 268.253906 79.128906 267.097656 78.4375 C 265.945312 77.746094 264.773438 77.082031 263.589844 76.449219 C 262.402344 75.8125 261.199219 75.207031 259.984375 74.628906 C 258.769531 74.054688 257.539062 73.507812 256.296875 72.992188 C 255.054688 72.476562 253.800781 71.992188 252.53125 71.535156 C 251.265625 71.082031 249.988281 70.65625 248.699219 70.265625 C 247.414062 69.875 246.117188 69.511719 244.8125 69.183594 C 243.507812 68.855469 242.195312 68.558594 240.875 68.292969 C 239.554688 68.027344 238.230469 67.796875 236.898438 67.597656 C 235.566406 67.394531 234.234375 67.230469 232.894531 67.09375 C 231.554688 66.960938 230.214844 66.859375 228.867188 66.789062 C 227.523438 66.71875 226.179688 66.683594 224.832031 66.679688 Z M 224.832031 66.679688 " fill-opacity="1" fill-rule="nonzero"/></g><g clip-path="url(#5f2d22ea12)"><path fill="#006985" d="M 112.648438 0.171875 C 111.304688 0.175781 109.957031 0.210938 108.613281 0.277344 C 107.269531 0.347656 105.929688 0.449219 104.589844 0.585938 C 103.25 0.71875 101.914062 0.886719 100.585938 1.085938 C 99.253906 1.285156 97.929688 1.519531 96.609375 1.78125 C 95.289062 2.046875 93.976562 2.34375 92.671875 2.671875 C 91.367188 3.003906 90.070312 3.363281 88.785156 3.753906 C 87.496094 4.148438 86.21875 4.570312 84.953125 5.027344 C 83.6875 5.480469 82.429688 5.964844 81.1875 6.480469 C 79.945312 7 78.714844 7.542969 77.5 8.121094 C 76.285156 8.695312 75.082031 9.300781 73.894531 9.9375 C 72.710938 10.574219 71.539062 11.234375 70.386719 11.929688 C 69.230469 12.621094 68.09375 13.339844 66.976562 14.089844 C 65.859375 14.835938 64.757812 15.609375 63.675781 16.414062 C 62.597656 17.214844 61.535156 18.042969 60.496094 18.894531 C 59.457031 19.75 58.4375 20.625 57.441406 21.53125 C 56.441406 22.433594 55.46875 23.359375 54.515625 24.3125 C 53.566406 25.261719 52.636719 26.234375 51.734375 27.230469 C 50.828125 28.226562 49.949219 29.246094 49.097656 30.285156 C 48.242188 31.324219 47.414062 32.382812 46.613281 33.464844 C 45.808594 34.542969 45.035156 35.640625 44.285156 36.761719 C 43.535156 37.878906 42.816406 39.011719 42.125 40.164062 C 41.429688 41.320312 40.765625 42.488281 40.132812 43.671875 C 39.496094 44.859375 38.890625 46.058594 38.3125 47.273438 C 37.734375 48.488281 37.1875 49.71875 36.671875 50.960938 C 36.15625 52.199219 35.671875 53.453125 35.214844 54.71875 C 34.761719 55.984375 34.335938 57.261719 33.941406 58.546875 C 33.550781 59.835938 33.191406 61.128906 32.859375 62.433594 C 32.53125 63.738281 32.234375 65.046875 31.96875 66.367188 C 31.703125 67.6875 31.472656 69.011719 31.273438 70.339844 C 31.070312 71.667969 30.90625 73.003906 30.769531 74.339844 C 30.636719 75.679688 30.53125 77.019531 30.464844 78.363281 C 30.394531 79.707031 30.359375 81.050781 30.355469 82.394531 C 30.359375 83.738281 30.394531 85.082031 30.464844 86.425781 C 30.53125 87.769531 30.636719 89.109375 30.769531 90.449219 C 30.90625 91.785156 31.070312 93.121094 31.273438 94.449219 C 31.472656 95.78125 31.703125 97.105469 31.96875 98.421875 C 32.234375 99.742188 32.53125 101.050781 32.859375 102.355469 C 33.191406 103.660156 33.550781 104.957031 33.941406 106.242188 C 34.335938 107.527344 34.761719 108.804688 35.214844 110.070312 C 35.671875 111.335938 36.15625 112.589844 36.671875 113.832031 C 37.1875 115.070312 37.734375 116.300781 38.3125 117.515625 C 38.890625 118.730469 39.496094 119.929688 40.132812 121.117188 C 40.765625 122.300781 41.429688 123.472656 42.125 124.625 C 42.816406 125.777344 43.535156 126.914062 44.285156 128.03125 C 45.035156 129.148438 45.808594 130.246094 46.613281 131.328125 C 47.414062 132.40625 48.242188 133.464844 49.097656 134.503906 C 49.949219 135.542969 50.828125 136.5625 51.734375 137.558594 C 52.636719 138.554688 53.566406 139.527344 54.515625 140.480469 C 55.46875 141.429688 56.441406 142.355469 57.441406 143.261719 C 58.4375 144.164062 59.457031 145.042969 60.496094 145.894531 C 61.535156 146.75 62.597656 147.574219 63.675781 148.378906 C 64.757812 149.179688 65.859375 149.953125 66.976562 150.703125 C 68.09375 151.449219 69.230469 152.167969 70.386719 152.863281 C 71.539062 153.554688 72.710938 154.21875 73.894531 154.851562 C 75.082031 155.488281 76.285156 156.09375 77.5 156.667969 C 78.714844 157.246094 79.945312 157.792969 81.1875 158.308594 C 82.429688 158.824219 83.6875 159.308594 84.953125 159.765625 C 86.21875 160.21875 87.496094 160.640625 88.785156 161.035156 C 90.070312 161.425781 91.367188 161.789062 92.671875 162.117188 C 93.976562 162.445312 95.289062 162.742188 96.609375 163.007812 C 97.929688 163.269531 99.253906 163.503906 100.585938 163.703125 C 101.914062 163.902344 103.25 164.070312 104.589844 164.207031 C 105.929688 164.339844 107.269531 164.441406 108.613281 164.511719 C 109.957031 164.578125 111.304688 164.617188 112.648438 164.617188 L 216.472656 164.617188 C 217 164.617188 217.523438 164.59375 218.046875 164.539062 C 218.570312 164.488281 219.085938 164.410156 219.601562 164.308594 C 220.117188 164.207031 220.625 164.078125 221.128906 163.925781 C 221.632812 163.773438 222.125 163.59375 222.609375 163.394531 C 223.097656 163.191406 223.570312 162.96875 224.035156 162.71875 C 224.496094 162.472656 224.945312 162.203125 225.382812 161.910156 C 225.820312 161.617188 226.242188 161.304688 226.648438 160.972656 C 227.050781 160.640625 227.441406 160.289062 227.8125 159.917969 C 228.183594 159.546875 228.535156 159.15625 228.867188 158.75 C 229.203125 158.34375 229.515625 157.921875 229.804688 157.488281 C 230.097656 157.050781 230.367188 156.601562 230.613281 156.136719 C 230.863281 155.675781 231.085938 155.199219 231.289062 154.714844 C 231.488281 154.230469 231.664062 153.738281 231.816406 153.234375 C 231.96875 152.734375 232.097656 152.222656 232.199219 151.710938 C 232.300781 151.195312 232.378906 150.675781 232.429688 150.152344 C 232.480469 149.632812 232.507812 149.105469 232.507812 148.582031 C 232.507812 148.058594 232.480469 147.535156 232.429688 147.011719 C 232.378906 146.488281 232.300781 145.96875 232.199219 145.457031 C 232.097656 144.941406 231.96875 144.433594 231.816406 143.929688 C 231.664062 143.429688 231.488281 142.933594 231.289062 142.449219 C 231.085938 141.964844 230.863281 141.492188 230.613281 141.027344 C 230.367188 140.5625 230.097656 140.113281 229.804688 139.679688 C 229.515625 139.242188 229.203125 138.820312 228.867188 138.414062 C 228.535156 138.007812 228.183594 137.621094 227.8125 137.25 C 227.441406 136.878906 227.050781 136.523438 226.648438 136.191406 C 226.242188 135.859375 225.820312 135.546875 225.382812 135.253906 C 224.945312 134.960938 224.496094 134.691406 224.035156 134.445312 C 223.570312 134.195312 223.097656 133.972656 222.609375 133.769531 C 222.125 133.570312 221.632812 133.394531 221.128906 133.242188 C 220.625 133.085938 220.117188 132.960938 219.601562 132.855469 C 219.085938 132.753906 218.570312 132.675781 218.046875 132.625 C 217.523438 132.574219 217 132.546875 216.472656 132.546875 L 112.648438 132.546875 C 111.007812 132.539062 109.371094 132.453125 107.734375 132.289062 C 106.101562 132.121094 104.480469 131.875 102.871094 131.550781 C 101.261719 131.226562 99.671875 130.824219 98.101562 130.34375 C 96.53125 129.863281 94.988281 129.308594 93.472656 128.679688 C 91.957031 128.046875 90.472656 127.34375 89.027344 126.570312 C 87.578125 125.792969 86.171875 124.949219 84.808594 124.035156 C 83.445312 123.125 82.128906 122.148438 80.859375 121.105469 C 79.589844 120.0625 78.375 118.964844 77.214844 117.804688 C 76.050781 116.644531 74.949219 115.429688 73.90625 114.160156 C 72.867188 112.894531 71.886719 111.578125 70.972656 110.214844 C 70.058594 108.851562 69.214844 107.445312 68.4375 106 C 67.664062 104.554688 66.957031 103.074219 66.328125 101.558594 C 65.695312 100.046875 65.140625 98.503906 64.660156 96.933594 C 64.179688 95.363281 63.777344 93.777344 63.449219 92.167969 C 63.125 90.558594 62.878906 88.941406 62.714844 87.308594 C 62.546875 85.675781 62.460938 84.039062 62.453125 82.398438 C 62.460938 80.757812 62.546875 79.121094 62.714844 77.488281 C 62.878906 75.855469 63.125 74.234375 63.449219 72.625 C 63.773438 71.019531 64.179688 69.429688 64.660156 67.859375 C 65.140625 66.292969 65.695312 64.75 66.324219 63.234375 C 66.957031 61.71875 67.660156 60.238281 68.4375 58.792969 C 69.214844 57.347656 70.058594 55.941406 70.972656 54.578125 C 71.886719 53.214844 72.863281 51.898438 73.90625 50.632812 C 74.949219 49.363281 76.050781 48.148438 77.210938 46.988281 C 78.375 45.828125 79.589844 44.730469 80.855469 43.6875 C 82.125 42.644531 83.441406 41.667969 84.808594 40.753906 C 86.171875 39.84375 87.578125 39 89.027344 38.222656 C 90.472656 37.449219 91.953125 36.746094 93.46875 36.113281 C 94.988281 35.484375 96.53125 34.925781 98.101562 34.449219 C 99.671875 33.96875 101.261719 33.566406 102.871094 33.242188 C 104.480469 32.914062 106.101562 32.671875 107.734375 32.503906 C 109.371094 32.335938 111.007812 32.25 112.648438 32.246094 L 337.214844 32.246094 L 337.214844 0.171875 Z M 112.648438 0.171875 " fill-opacity="1" fill-rule="nonzero"/></g></svg>